<svg width="145" height="49" viewBox="0 0 145 49" fill="none" xmlns="http://www.w3.org/2000/svg">
<rect x="0.601548" y="0.601548" width="143.168" height="46.9208" rx="6.61703" fill="white"/>
<rect x="0.601548" y="0.601548" width="143.168" height="46.9208" rx="6.61703" stroke="#A6A6A6" stroke-width="1.2031"/>
<path d="M21.4209 23.4142L9.73257 36.1C9.73367 36.1022 9.73367 36.1056 9.73477 36.1078C10.0938 37.4853 11.3233 38.499 12.7834 38.499C13.3674 38.499 13.9152 38.3374 14.3851 38.0545L14.4224 38.032L27.5785 30.269L21.4209 23.4142Z" fill="#EA4335"/>
<path d="M33.2453 21.254L33.2343 21.2461L27.5543 17.8793L21.1552 23.7024L27.5773 30.2676L33.2266 26.9345C34.2168 26.3866 34.8898 25.319 34.8898 24.0886C34.8898 22.8649 34.2267 21.8029 33.2453 21.254Z" fill="#FBBC04"/>
<path d="M9.73234 12.0225C9.66208 12.2875 9.62476 12.5659 9.62476 12.8533V35.27C9.62476 35.5574 9.66208 35.8358 9.73344 36.0996L21.8225 23.7383L9.73234 12.0225Z" fill="#4285F4"/>
<path d="M21.5072 24.0615L27.5562 17.8769L14.4154 10.0859C13.9379 9.79287 13.3802 9.62447 12.7841 9.62447C11.324 9.62447 10.0923 10.6405 9.73327 12.019C9.73327 12.0202 9.73218 12.0213 9.73218 12.0224L21.5072 24.0615Z" fill="#34A853"/>
<path d="M54.42 13.2761C54.42 14.4127 54.0828 15.3182 53.4084 15.9926C52.6506 16.7959 51.6541 17.1975 50.419 17.1975C49.2369 17.1975 48.2366 16.7883 47.4182 15.9699C46.5999 15.1515 46.1907 14.1437 46.1907 12.9464C46.1907 11.7492 46.5999 10.7413 47.4182 9.92295C48.2366 9.10457 49.2369 8.69538 50.419 8.69538C51.0176 8.69538 51.5822 8.80146 52.1126 9.01364C52.643 9.22581 53.0787 9.52513 53.4197 9.91159L52.6696 10.6618C52.4195 10.3587 52.0937 10.1238 51.692 9.95705C51.298 9.78277 50.8737 9.69562 50.419 9.69562C49.5324 9.69562 48.7822 10.0025 48.1684 10.6163C47.5622 11.2377 47.2591 12.0144 47.2591 12.9464C47.2591 13.8785 47.5622 14.6552 48.1684 15.2766C48.7822 15.8903 49.5324 16.1972 50.419 16.1972C51.2298 16.1972 51.9042 15.9699 52.4422 15.5153C52.9802 15.0606 53.2909 14.4354 53.3743 13.6398H50.419V12.6623H54.3632C54.401 12.8744 54.42 13.079 54.42 13.2761ZM60.4417 8.87724V9.87749H56.7363V12.4577H60.078V13.4352H56.7363V16.0154H60.4417V17.0156H55.6905V8.87724H60.4417ZM64.6245 9.87749V17.0156H63.5788V9.87749H61.3055V8.87724H66.8978V9.87749H64.6245ZM71.5326 17.0156H70.4869V8.87724H71.5326V17.0156ZM75.9466 9.87749V17.0156H74.9008V9.87749H72.6275V8.87724H78.2198V9.87749H75.9466ZM89.5549 12.9464C89.5549 14.1513 89.1533 15.1591 88.35 15.9699C87.5392 16.7883 86.5465 17.1975 85.372 17.1975C84.1899 17.1975 83.1972 16.7883 82.394 15.9699C81.5908 15.1591 81.1892 14.1513 81.1892 12.9464C81.1892 11.7416 81.5908 10.7338 82.394 9.92295C83.1972 9.10457 84.1899 8.69538 85.372 8.69538C86.5541 8.69538 87.5468 9.10836 88.35 9.93432C89.1533 10.7451 89.5549 11.7492 89.5549 12.9464ZM82.2576 12.9464C82.2576 13.8861 82.5531 14.6628 83.1442 15.2766C83.7428 15.8903 84.4854 16.1972 85.372 16.1972C86.2586 16.1972 86.9974 15.8903 87.5885 15.2766C88.1871 14.6703 88.4864 13.8936 88.4864 12.9464C88.4864 11.9992 88.1871 11.2225 87.5885 10.6163C86.9974 10.0025 86.2586 9.69562 85.372 9.69562C84.4854 9.69562 83.7428 10.0025 83.1442 10.6163C82.5531 11.2301 82.2576 12.0068 82.2576 12.9464ZM91.8346 17.0156H90.7889V8.87724H92.062L96.0175 15.2084H96.063L96.0175 13.6398V8.87724H97.0632V17.0156H95.972L91.8346 10.3776H91.7892L91.8346 11.9462V17.0156Z" fill="black"/>
<path d="M112.511 35.3514H114.471V22.1035H112.511V35.3514ZM130.161 26.8755L127.915 32.6193H127.848L125.517 26.8755H123.406L126.902 34.9031L124.91 39.3689H126.952L132.341 26.8755H130.161ZM119.049 33.8465C118.406 33.8465 117.511 33.5233 117.511 32.7211C117.511 31.6995 118.625 31.3074 119.588 31.3074C120.45 31.3074 120.856 31.4949 121.379 31.7503C121.227 32.9775 120.18 33.8465 119.049 33.8465ZM119.285 26.5862C117.866 26.5862 116.396 27.2167 115.789 28.6145L117.528 29.3468C117.9 28.6145 118.592 28.375 119.318 28.375C120.332 28.375 121.362 28.9886 121.379 30.0802V30.2158C121.024 30.0113 120.265 29.705 119.335 29.705C117.461 29.705 115.552 30.7446 115.552 32.6872C115.552 34.4601 117.089 35.6025 118.811 35.6025C120.129 35.6025 120.856 35.0059 121.312 34.3065H121.379V35.3291H123.27V30.2497C123.27 27.8982 121.531 26.5862 119.285 26.5862ZM107.174 28.4884H104.387V23.9474H107.174C108.639 23.9474 109.471 25.1714 109.471 26.2174C109.471 27.2443 108.639 28.4884 107.174 28.4884ZM107.124 22.1035H102.429V35.3514H104.387V30.3324H107.124C109.296 30.3324 111.431 28.7449 111.431 26.2174C111.431 23.6899 109.296 22.1035 107.124 22.1035ZM81.5198 33.8486C80.1661 33.8486 79.033 32.7052 79.033 31.1346C79.033 29.5471 80.1661 28.3856 81.5198 28.3856C82.8566 28.3856 83.9047 29.5471 83.9047 31.1346C83.9047 32.7052 82.8566 33.8486 81.5198 33.8486ZM83.7703 27.6173H83.702C83.262 27.0885 82.4166 26.6106 81.3507 26.6106C79.117 26.6106 77.0702 28.5902 77.0702 31.1346C77.0702 33.6611 79.117 35.6248 81.3507 35.6248C82.4166 35.6248 83.262 35.1468 83.702 34.6H83.7703V35.2496C83.7703 36.9738 82.8566 37.8958 81.3843 37.8958C80.1829 37.8958 79.4383 37.0247 79.1338 36.2903L77.4252 37.0078C77.9156 38.2031 79.2188 39.6709 81.3843 39.6709C83.6852 39.6709 85.6312 38.3049 85.6312 34.9762V26.8829H83.7703V27.6173ZM86.9848 35.3514H88.9476V22.1024H86.9848V35.3514ZM91.8398 30.981C91.7894 29.2398 93.1766 28.3517 94.1743 28.3517C94.9535 28.3517 95.613 28.7438 95.8325 29.3076L91.8398 30.981ZM97.9308 29.4782C97.559 28.4715 96.4248 26.6106 94.1071 26.6106C91.8062 26.6106 89.8949 28.4365 89.8949 31.1177C89.8949 33.6441 91.7894 35.6248 94.3266 35.6248C96.3744 35.6248 97.559 34.3616 98.0494 33.6272L96.5267 32.6024C96.0194 33.3537 95.3253 33.8486 94.3266 33.8486C93.3289 33.8486 92.6179 33.3877 92.1611 32.4837L98.1334 29.9901L97.9308 29.4782ZM50.3497 27.9935V29.9053H54.8833C54.7478 30.981 54.3928 31.7662 53.852 32.312C53.1915 32.9786 52.1591 33.713 50.3497 33.713C47.5573 33.713 45.375 31.442 45.375 28.6251C45.375 25.8073 47.5573 23.5373 50.3497 23.5373C51.8556 23.5373 52.9552 24.135 53.7669 24.9033L55.1038 23.5543C53.9696 22.4617 52.4647 21.6245 50.3497 21.6245C46.526 21.6245 43.3115 24.7666 43.3115 28.6251C43.3115 32.4837 46.526 35.6248 50.3497 35.6248C52.4133 35.6248 53.9696 34.9412 55.1878 33.6611C56.4407 32.3978 56.8292 30.6228 56.8292 29.1879C56.8292 28.7438 56.7956 28.3348 56.7274 27.9935H50.3497ZM61.9845 33.8486C60.6308 33.8486 59.4631 32.7221 59.4631 31.1177C59.4631 29.4952 60.6308 28.3856 61.9845 28.3856C63.3371 28.3856 64.5049 29.4952 64.5049 31.1177C64.5049 32.7221 63.3371 33.8486 61.9845 33.8486ZM61.9845 26.6106C59.5135 26.6106 57.5003 28.5054 57.5003 31.1177C57.5003 33.713 59.5135 35.6248 61.9845 35.6248C64.4545 35.6248 66.4677 33.713 66.4677 31.1177C66.4677 28.5054 64.4545 26.6106 61.9845 26.6106ZM71.7647 33.8486C70.4111 33.8486 69.2433 32.7221 69.2433 31.1177C69.2433 29.4952 70.4111 28.3856 71.7647 28.3856C73.1184 28.3856 74.2852 29.4952 74.2852 31.1177C74.2852 32.7221 73.1184 33.8486 71.7647 33.8486ZM71.7647 26.6106C69.2947 26.6106 67.2816 28.5054 67.2816 31.1177C67.2816 33.713 69.2947 35.6248 71.7647 35.6248C74.2347 35.6248 76.2479 33.713 76.2479 31.1177C76.2479 28.5054 74.2347 26.6106 71.7647 26.6106Z" fill="black"/>
</svg>
