<svg width="145" height="49" viewBox="0 0 145 49" fill="none" xmlns="http://www.w3.org/2000/svg">
<rect x="0.601548" y="0.601548" width="143.168" height="46.9208" rx="6.61703" fill="white"/>
<rect x="0.601548" y="0.601548" width="143.168" height="46.9208" rx="6.61703" stroke="#A6A6A6" stroke-width="1.2031"/>
<path d="M29.7219 24.9801C29.7365 23.8734 30.0376 22.7883 30.5972 21.8257C31.1568 20.8631 31.9567 20.0543 32.9225 19.4746C32.3089 18.6192 31.4995 17.9152 30.5586 17.4185C29.6176 16.9219 28.571 16.6463 27.5018 16.6136C25.2211 16.3799 23.0101 17.946 21.8479 17.946C20.6632 17.946 18.8739 16.6368 16.947 16.6755C15.7006 16.7148 14.486 17.0687 13.4213 17.7026C12.3567 18.3365 11.4784 19.2288 10.872 20.2926C8.24543 24.7325 10.2047 31.2577 12.7208 34.8466C13.9797 36.604 15.4509 38.567 17.3761 38.4974C19.2599 38.4211 19.9635 37.3246 22.2375 37.3246C24.4903 37.3246 25.1504 38.4974 27.1146 38.4531C29.1361 38.4211 30.4097 36.6879 31.6244 34.9139C32.5289 33.6617 33.2249 32.2778 33.6867 30.8133C32.5123 30.3284 31.51 29.5167 30.805 28.4794C30.0999 27.442 29.7232 26.2251 29.7219 24.9801Z" fill="black"/>
<path d="M26.0119 14.2535C27.1141 12.9617 27.6571 11.3013 27.5256 9.625C25.8417 9.79767 24.2863 10.5834 23.1692 11.8256C22.623 12.4324 22.2047 13.1384 21.9382 13.9032C21.6717 14.668 21.5621 15.4766 21.6159 16.2827C22.4581 16.2912 23.2913 16.1129 24.0528 15.7614C24.8143 15.4099 25.4841 14.8943 26.0119 14.2535Z" fill="black"/>
<path d="M46.8021 12.6818H49.1548C51.1878 12.6818 52.1768 13.8906 52.1768 16.0834C52.1768 18.2762 51.1778 19.5 49.1548 19.5H46.8021V12.6818ZM47.936 13.6358V18.546H49.0299C50.3786 18.546 51.0129 17.7318 51.0129 16.0984C51.0129 14.455 50.3736 13.6358 49.0299 13.6358H47.936ZM55.7632 14.1303C57.1418 14.1303 58.1059 15.0245 58.1059 16.508V17.1923C58.1059 18.7258 57.1418 19.5899 55.7632 19.5899C54.3646 19.5899 53.4105 18.7358 53.4105 17.1973V16.513C53.4105 15.0694 54.3796 14.1303 55.7632 14.1303ZM55.7682 15.0245C54.979 15.0245 54.5294 15.6838 54.5294 16.5679V17.1573C54.5294 18.0415 54.949 18.6958 55.7682 18.6958C56.5774 18.6958 56.992 18.0464 56.992 17.1573V16.5679C56.992 15.6838 56.5574 15.0245 55.7682 15.0245ZM66.2478 14.2203L64.8591 19.5H63.7303L62.6264 15.6039H62.5964L61.5125 19.5H60.3786L58.93 14.2203H60.1239L60.973 18.2462H61.023L62.0869 14.2203H63.1309L64.2248 18.2462H64.2747L65.1389 14.2203H66.2478ZM67.3467 19.5V14.2203H68.4356V15.1693H68.4905C68.6254 14.7547 69.01 14.1403 70.0789 14.1403C71.1429 14.1403 71.8572 14.7298 71.8572 15.9336V19.5H70.7483V16.2582C70.7483 15.454 70.3287 15.0844 69.7043 15.0844C68.8851 15.0844 68.4556 15.7138 68.4556 16.5679V19.5H67.3467ZM73.5355 19.5V12.3221H74.6444V19.5H73.5355ZM78.4506 14.1303C79.8292 14.1303 80.7933 15.0245 80.7933 16.508V17.1923C80.7933 18.7258 79.8292 19.5899 78.4506 19.5899C77.052 19.5899 76.0979 18.7358 76.0979 17.1973V16.513C76.0979 15.0694 77.067 14.1303 78.4506 14.1303ZM78.4556 15.0245C77.6664 15.0245 77.2168 15.6838 77.2168 16.5679V17.1573C77.2168 18.0415 77.6364 18.6958 78.4556 18.6958C79.2648 18.6958 79.6794 18.0464 79.6794 17.1573V16.5679C79.6794 15.6838 79.2448 15.0245 78.4556 15.0245ZM83.6654 19.5799C82.6414 19.5799 81.9371 18.9505 81.9371 17.9665C81.9371 17.0325 82.5865 16.4031 83.8053 16.4031H85.1389V15.9086C85.1389 15.3042 84.7543 15.0195 84.1449 15.0195C83.5455 15.0195 83.2758 15.2692 83.1909 15.6189H82.1369C82.2019 14.7347 82.8662 14.1403 84.1799 14.1403C85.3088 14.1403 86.2428 14.6099 86.2428 15.9236V19.5H85.1889V18.8157H85.1389C84.9042 19.2203 84.4446 19.5799 83.6654 19.5799ZM84.0101 18.7208C84.6394 18.7208 85.1389 18.2912 85.1389 17.7168V17.1473H83.9801C83.3357 17.1473 83.051 17.472 83.051 17.9116C83.051 18.461 83.5106 18.7208 84.0101 18.7208ZM89.6594 14.1503C90.4037 14.1503 90.9731 14.48 91.1779 15.0145H91.2329V12.3221H92.3418V19.5H91.2628V18.6558H91.2079C91.0481 19.1903 90.4137 19.5699 89.6445 19.5699C88.4307 19.5699 87.6415 18.7058 87.6415 17.3122V16.4081C87.6415 15.0145 88.4457 14.1503 89.6594 14.1503ZM89.9691 15.0594C89.2299 15.0594 88.7703 15.6089 88.7703 16.5679V17.1473C88.7703 18.1114 89.2349 18.6608 89.9941 18.6608C90.7434 18.6608 91.2329 18.1164 91.2329 17.2173V16.4181C91.2329 15.6039 90.6984 15.0594 89.9691 15.0594ZM98.4307 14.1303C99.8093 14.1303 100.773 15.0245 100.773 16.508V17.1923C100.773 18.7258 99.8093 19.5899 98.4307 19.5899C97.0321 19.5899 96.0781 18.7358 96.0781 17.1973V16.513C96.0781 15.0694 97.0471 14.1303 98.4307 14.1303ZM98.4357 15.0245C97.6465 15.0245 97.1969 15.6838 97.1969 16.5679V17.1573C97.1969 18.0415 97.6165 18.6958 98.4357 18.6958C99.2449 18.6958 99.6595 18.0464 99.6595 17.1573V16.5679C99.6595 15.6838 99.2249 15.0245 98.4357 15.0245ZM102.202 19.5V14.2203H103.291V15.1693H103.346C103.481 14.7547 103.865 14.1403 104.934 14.1403C105.998 14.1403 106.712 14.7298 106.712 15.9336V19.5H105.604V16.2582C105.604 15.454 105.184 15.0844 104.56 15.0844C103.74 15.0844 103.311 15.7138 103.311 16.5679V19.5H102.202ZM111.003 14.2552V12.9365H112.087V14.2552H113.271V15.1244H112.087V17.9266C112.087 18.501 112.302 18.6608 112.896 18.6608C113.046 18.6608 113.246 18.6508 113.331 18.6409V19.49C113.241 19.505 112.871 19.535 112.622 19.535C111.338 19.535 110.988 19.0754 110.988 18.0165V15.1244H110.184V14.2552H111.003ZM114.67 19.5V12.3221H115.773V15.1693H115.828C115.943 14.7947 116.373 14.1403 117.432 14.1403C118.461 14.1403 119.195 14.7347 119.195 15.9385V19.5H118.091V16.2632C118.091 15.459 117.647 15.0844 117.017 15.0844C116.223 15.0844 115.773 15.7088 115.773 16.5679V19.5H114.67ZM122.916 19.5899C121.478 19.5899 120.584 18.7058 120.584 17.2173V16.503C120.584 15.0045 121.563 14.1303 122.851 14.1303C124.175 14.1303 125.109 15.0494 125.109 16.503V17.1224H121.683V17.3821C121.683 18.1414 122.132 18.7008 122.911 18.7008C123.491 18.7008 123.89 18.4261 123.965 18.0964H125.049C124.984 18.7058 124.34 19.5899 122.916 19.5899ZM121.683 16.3981H124.025V16.3282C124.025 15.5339 123.561 15.0045 122.856 15.0045C122.152 15.0045 121.683 15.5339 121.683 16.3282V16.3981Z" fill="black"/>
<path d="M48.4105 37.5H46.1028L50.7981 23.8636H53.3356L58.0209 37.5H55.6233L54.4145 33.7238H49.6293L48.4105 37.5ZM52.0769 26.2212H51.987L50.1388 31.9855H53.905L52.0769 26.2212ZM64.3899 37.6499C63.0212 37.6499 61.9822 37.0005 61.4228 36.0315H61.3429V41.0065H59.1251V26.9405H61.2829V28.489H61.3629C61.9423 27.48 63.0212 26.8007 64.4398 26.8007C66.8074 26.8007 68.4958 28.5889 68.4958 31.7457V32.6848C68.4958 35.8217 66.8274 37.6499 64.3899 37.6499ZM63.8804 35.8217C65.289 35.8217 66.248 34.6928 66.248 32.5649V31.8257C66.248 29.7777 65.3489 28.6089 63.8404 28.6089C62.2919 28.6089 61.3229 29.8676 61.3229 31.8157V32.5649C61.3229 34.5629 62.3019 35.8217 63.8804 35.8217ZM75.6639 37.6499C74.2952 37.6499 73.2563 37.0005 72.6968 36.0315H72.6169V41.0065H70.3991V26.9405H72.557V28.489H72.6369C73.2163 27.48 74.2952 26.8007 75.7138 26.8007C78.0815 26.8007 79.7698 28.5889 79.7698 31.7457V32.6848C79.7698 35.8217 78.1014 37.6499 75.6639 37.6499ZM75.1544 35.8217C76.563 35.8217 77.522 34.6928 77.522 32.5649V31.8257C77.522 29.7777 76.6229 28.6089 75.1144 28.6089C73.566 28.6089 72.5969 29.8676 72.5969 31.8157V32.5649C72.5969 34.5629 73.5759 35.8217 75.1544 35.8217ZM84.3657 33.7138H86.5835C86.6834 34.8926 87.7223 35.9016 89.6504 35.9016C91.4187 35.9016 92.4676 35.0724 92.4676 33.7837C92.4676 32.7447 91.7683 32.1853 90.3098 31.8356L88.072 31.2762C86.3138 30.8666 84.7353 29.8176 84.7353 27.5999C84.7353 24.9925 87.0131 23.5639 89.6604 23.5639C92.3078 23.5639 94.5156 24.9925 94.5655 27.5399H92.3877C92.2878 26.3811 91.3987 25.422 89.6304 25.422C88.072 25.422 87.0131 26.1613 87.0131 27.43C87.0131 28.3191 87.6324 28.9585 88.9012 29.2482L91.129 29.7977C93.1769 30.2972 94.7354 31.2662 94.7354 33.5839C94.7354 36.2612 92.5675 37.7697 89.4806 37.7697C85.6844 37.7697 84.4156 35.5519 84.3657 33.7138ZM97.4379 26.9405V24.3731H99.6158V26.9405H101.674V28.7187H99.6158V34.3531C99.6158 35.502 100.045 35.8217 101.234 35.8217C101.424 35.8217 101.604 35.8217 101.734 35.8017V37.5C101.554 37.53 101.134 37.5699 100.685 37.5699C98.1172 37.5699 97.408 36.6508 97.408 34.533V28.7187H95.9494V26.9405H97.4379ZM107.663 26.7607C110.7 26.7607 112.348 28.8986 112.348 31.7757V32.6249C112.348 35.6019 110.71 37.6798 107.663 37.6798C104.616 37.6798 102.958 35.6019 102.958 32.6249V31.7757C102.958 28.9086 104.626 26.7607 107.663 26.7607ZM107.663 28.5389C106.015 28.5389 105.195 29.8876 105.195 31.8057V32.6149C105.195 34.503 106.005 35.8916 107.663 35.8916C109.321 35.8916 110.121 34.513 110.121 32.6149V31.8057C110.121 29.8776 109.311 28.5389 107.663 28.5389ZM114.222 37.5V26.9405H116.439V28.3291H116.519C116.789 27.6698 117.578 26.7907 119.047 26.7907C119.337 26.7907 119.586 26.8106 119.796 26.8506V28.8087C119.606 28.7587 119.217 28.7287 118.847 28.7287C117.069 28.7287 116.469 29.8276 116.469 31.2462V37.5H114.222ZM125.176 37.6798C122.349 37.6798 120.551 35.8117 120.551 32.6848V31.6159C120.551 28.6688 122.309 26.7607 125.086 26.7607C127.903 26.7607 129.602 28.7387 129.602 31.7158V32.7248H122.738V32.9745C122.738 34.7527 123.698 35.9316 125.206 35.9316C126.335 35.9316 127.104 35.3721 127.374 34.463H129.482C129.162 36.1713 127.783 37.6798 125.176 37.6798ZM122.738 31.1763H127.434V31.1563C127.434 29.6578 126.505 28.479 125.096 28.479C123.668 28.479 122.738 29.6578 122.738 31.1563V31.1763Z" fill="black"/>
</svg>
