<svg width="32" height="31" viewBox="0 0 32 31" fill="none" xmlns="http://www.w3.org/2000/svg">
<path d="M7.04288 22.2684H24.9571V13.2784C24.9571 11.6423 24.5477 10.1182 23.7287 8.70594C22.9439 7.32816 21.8776 6.23455 20.5298 5.4251C19.1307 4.61566 17.6208 4.21094 16 4.21094C14.3792 4.21094 12.8693 4.61566 11.4703 5.4251C10.1224 6.23455 9.05611 7.32816 8.27129 8.70594C7.45235 10.1182 7.04288 11.6423 7.04288 13.2784V22.2684ZM16 1.60177C18.0815 1.60177 20.0179 2.13566 21.8094 3.20344C23.5496 4.23677 24.9316 5.63177 25.9552 7.38844C26.996 9.19677 27.5163 11.1601 27.5163 13.2784V24.8518H4.4837V13.2784C4.4837 11.1601 5.00407 9.19677 6.0448 7.38844C7.06848 5.63177 8.45043 4.23677 10.1907 3.20344C11.9821 2.15288 13.9185 1.62761 16 1.62761V1.60177ZM12.801 26.1434H19.199C19.199 26.729 19.054 27.2715 18.7639 27.7709C18.4739 28.2704 18.0857 28.6665 17.5995 28.9593C17.1133 29.252 16.5801 29.3984 16 29.3984C15.4199 29.3984 14.8868 29.252 14.4005 28.9593C13.9143 28.6665 13.5261 28.2704 13.2361 27.7709C12.9461 27.2715 12.801 26.7376 12.801 26.1693V26.1434Z" fill="#6B7280"/>
</svg>
