<svg width="36" height="36" viewBox="0 0 36 36" fill="none" xmlns="http://www.w3.org/2000/svg">
<circle cx="18" cy="18" r="18" fill="#3AB449"/>
<path fill-rule="evenodd" clip-rule="evenodd" d="M14.39 9.91971C14.5874 9.95345 14.8456 10.0534 15.0302 10.3057L16.6696 12.5455C17.0061 13.0052 17.0774 13.6075 16.8576 14.1331L16.1277 15.878C16.1121 15.9153 16.1216 15.9426 16.1295 15.9539C16.5922 16.6111 17.1704 17.312 17.8982 18.0429C17.9096 18.053 17.9208 18.0635 17.9317 18.0744C18.6728 18.8157 19.3833 19.4029 20.049 19.8716C20.0603 19.8795 20.0876 19.889 20.1249 19.8734L21.8695 19.1436C22.3951 18.9237 22.9975 18.995 23.4572 19.3315L25.6968 20.9709C25.949 21.1555 26.049 21.4137 26.0827 21.6111C26.115 21.7996 26.0969 21.9786 26.0724 22.1152C26.0229 22.3905 25.9111 22.6807 25.8009 22.9265C25.5756 23.4288 25.2692 23.9351 25.1206 24.1555L25.0128 24.3155L25.0059 24.3257C24.7051 24.7721 24.2542 25.4411 23.5137 25.7727C22.2333 26.3461 20.5806 26.1229 18.9616 25.4585C17.3357 24.7913 15.6055 23.6262 14.0352 22.0716C14.0222 22.0602 14.0094 22.0483 13.997 22.0359C12.4086 20.4475 11.2194 18.6907 10.5426 17.0412C9.87822 15.422 9.65501 13.7692 10.2284 12.4888C10.5601 11.7483 11.229 11.2974 11.6754 10.9966C11.6788 10.9942 11.6822 10.9919 11.6856 10.9897L11.8456 10.8818C12.066 10.7332 12.5723 10.4269 13.0746 10.2016C13.3204 10.0913 13.6107 9.97953 13.886 9.93007C14.0226 9.90552 14.2015 9.88749 14.39 9.91971ZM15.0087 20.8994C15.0198 20.9093 15.0306 20.9195 15.0413 20.9302C16.5102 22.3993 18.1027 23.4644 19.5382 24.0535C21.0042 24.655 22.1724 24.7093 22.893 24.3866C23.1847 24.2559 23.4186 23.9634 23.7534 23.4666L23.8612 23.3066C23.9728 23.1411 24.2329 22.7111 24.4151 22.3049C24.468 22.187 24.5077 22.0855 24.5352 22.0028L22.5601 20.5571C22.5299 20.5349 22.4902 20.5302 22.4556 20.5447L20.7111 21.2745C20.2168 21.4813 19.6346 21.4373 19.1746 21.1134C18.4451 20.5997 17.678 19.9654 16.8872 19.1778C16.8755 19.1674 16.864 19.1566 16.8528 19.1454C16.0515 18.3441 15.4077 17.5669 14.8876 16.8282C14.5638 16.3683 14.5198 15.7861 14.7266 15.2919L15.4565 13.547C15.4709 13.5124 15.4662 13.4728 15.4441 13.4425L13.9983 11.4672C13.9156 11.4947 13.8141 11.5344 13.6962 11.5873C13.2899 11.7695 12.86 12.0296 12.6945 12.1412L12.5345 12.249C12.0377 12.5839 11.7452 12.8177 11.6145 13.1095C11.2918 13.8302 11.3461 14.9985 11.9476 16.4647C12.5284 17.88 13.5717 19.4478 15.0087 20.8994Z" fill="white"/>
</svg>
