<svg width="20" height="20" viewBox="0 0 20 20" fill="none" xmlns="http://www.w3.org/2000/svg">
<path d="M1.25 4.375V15H18.75V4.375H1.25ZM3.75 5.625H16.25C16.25 6.31562 16.8094 6.875 17.5 6.875V12.5C16.8094 12.5 16.25 13.0594 16.25 13.75H3.75C3.75 13.0594 3.19062 12.5 2.5 12.5V6.875C3.19062 6.875 3.75 6.31562 3.75 5.625ZM10 6.875C8.61812 6.875 7.5 8.135 7.5 9.6875C7.5 11.24 8.61812 12.5 10 12.5C11.3819 12.5 12.5 11.24 12.5 9.6875C12.5 8.135 11.3819 6.875 10 6.875ZM10 8.125C10.6888 8.125 11.25 8.82562 11.25 9.6875C11.25 10.5494 10.6888 11.25 10 11.25C9.31125 11.25 8.75 10.5494 8.75 9.6875C8.75 8.82562 9.31125 8.125 10 8.125ZM5.3125 8.75C4.795 8.75 4.375 9.17 4.375 9.6875C4.375 10.205 4.795 10.625 5.3125 10.625C5.83 10.625 6.25 10.205 6.25 9.6875C6.25 9.17 5.83 8.75 5.3125 8.75ZM14.6875 8.75C14.17 8.75 13.75 9.17 13.75 9.6875C13.75 10.205 14.17 10.625 14.6875 10.625C15.205 10.625 15.625 10.205 15.625 9.6875C15.625 9.17 15.205 8.75 14.6875 8.75Z" fill="#3AB449"/>
</svg>
