<svg width="36" height="36" viewBox="0 0 36 36" fill="none" xmlns="http://www.w3.org/2000/svg">
<circle cx="18" cy="18" r="18" fill="#FD8D5B"/>
<path d="M19.4062 25.5938C19.17 25.5938 18.9703 25.5122 18.8072 25.3491C18.6441 25.1859 18.5625 24.9862 18.5625 24.75V18C18.5625 17.7637 18.6441 17.5641 18.8072 17.4009C18.9703 17.2378 19.17 17.1562 19.4062 17.1562H24.4688C24.705 17.1562 24.9047 17.2378 25.0678 17.4009C25.2309 17.5641 25.3125 17.7637 25.3125 18V24.75C25.3125 24.9862 25.2309 25.1859 25.0678 25.3491C24.9047 25.5122 24.705 25.5938 24.4688 25.5938H19.4062ZM10.9688 18.8437C10.7325 18.8437 10.5328 18.7622 10.3697 18.5991C10.2066 18.4359 10.125 18.2362 10.125 18V11.25C10.125 11.0137 10.2066 10.8141 10.3697 10.6509C10.5328 10.4878 10.7325 10.4062 10.9688 10.4062H16.0312C16.2675 10.4062 16.4672 10.4878 16.6303 10.6509C16.7934 10.8141 16.875 11.0137 16.875 11.25V18C16.875 18.2362 16.7934 18.4359 16.6303 18.5991C16.4672 18.7622 16.2675 18.8437 16.0312 18.8437H10.9688ZM15.1875 17.1562V12.0937H11.8125V17.1562H15.1875ZM10.9688 25.5938C10.7325 25.5938 10.5328 25.5122 10.3697 25.3491C10.2066 25.1859 10.125 24.9862 10.125 24.75V21.375C10.125 21.1387 10.2066 20.9391 10.3697 20.7759C10.5328 20.6128 10.7325 20.5312 10.9688 20.5312H16.0312C16.2675 20.5312 16.4672 20.6128 16.6303 20.7759C16.7934 20.9391 16.875 21.1387 16.875 21.375V24.75C16.875 24.9862 16.7934 25.1859 16.6303 25.3491C16.4672 25.5122 16.2675 25.5938 16.0312 25.5938H10.9688ZM11.8125 23.9062H15.1875V22.2187H11.8125V23.9062ZM20.25 23.9062H23.625V18.8437H20.25V23.9062ZM18.5625 11.25C18.5625 11.0137 18.6441 10.8141 18.8072 10.6509C18.9703 10.4878 19.17 10.4062 19.4062 10.4062H24.4688C24.705 10.4062 24.9047 10.4878 25.0678 10.6509C25.2309 10.8141 25.3125 11.0137 25.3125 11.25V14.625C25.3125 14.8612 25.2309 15.0609 25.0678 15.2241C24.9047 15.3872 24.705 15.4688 24.4688 15.4688H19.4062C19.17 15.4688 18.9703 15.3872 18.8072 15.2241C18.6441 15.0609 18.5625 14.8612 18.5625 14.625V11.25ZM20.25 12.0937V13.7812H23.625V12.0937H20.25Z" fill="white"/>
</svg>
