<svg width="17" height="16" viewBox="0 0 17 16" fill="none" xmlns="http://www.w3.org/2000/svg">
<path d="M8.49999 2C9.69624 2 10.8291 2.26667 11.8984 2.8C12.9225 3.31556 13.7857 4.02889 14.4881 4.94C15.1904 5.85111 15.6458 6.87111 15.8542 8C15.6458 9.12889 15.1904 10.1489 14.4881 11.06C13.7857 11.9711 12.9225 12.6844 11.8984 13.2C10.8291 13.7333 9.69624 14 8.49999 14C7.30374 14 6.17092 13.7333 5.10154 13.2C4.07748 12.6844 3.21427 11.9711 2.51193 11.06C1.80958 10.1489 1.35419 9.12889 1.14575 8C1.35419 6.87111 1.80958 5.85111 2.51193 4.94C3.21427 4.02889 4.07748 3.31556 5.10154 2.8C6.17092 2.26667 7.30374 2 8.49999 2ZM8.49999 12.6667C9.44249 12.6667 10.3397 12.4622 11.1916 12.0533C12.0162 11.6622 12.7163 11.1111 13.2918 10.4C13.8673 9.68889 14.2592 8.88889 14.4677 8C14.2592 7.11111 13.8673 6.31111 13.2918 5.6C12.7163 4.88889 12.0162 4.33778 11.1916 3.94667C10.3397 3.53778 9.44249 3.33333 8.49999 3.33333C7.55749 3.33333 6.6603 3.53778 5.80842 3.94667C4.98373 4.33778 4.28365 4.88889 3.70818 5.6C3.13271 6.31111 2.74076 7.11111 2.53232 8C2.74076 8.88889 3.13271 9.68889 3.70818 10.4C4.28365 11.1111 4.98373 11.6622 5.80842 12.0533C6.6603 12.4622 7.55749 12.6667 8.49999 12.6667ZM8.49999 11C7.94718 11 7.43741 10.8644 6.97069 10.5933C6.50397 10.3222 6.13241 9.95778 5.856 9.5C5.57959 9.04222 5.44139 8.54222 5.44139 8C5.44139 7.45778 5.57959 6.95778 5.856 6.5C6.13241 6.04222 6.50397 5.67778 6.97069 5.40667C7.43741 5.13556 7.94718 5 8.49999 5C9.0528 5 9.56257 5.13556 10.0293 5.40667C10.496 5.67778 10.8676 6.04222 11.144 6.5C11.4204 6.95778 11.5586 7.45778 11.5586 8C11.5586 8.54222 11.4204 9.04222 11.144 9.5C10.8676 9.95778 10.496 10.3222 10.0293 10.5933C9.56257 10.8644 9.0528 11 8.49999 11ZM8.49999 9.66667C8.80812 9.66667 9.09132 9.59111 9.3496 9.44C9.60788 9.28889 9.81406 9.08667 9.96812 8.83333C10.1222 8.58 10.1992 8.30222 10.1992 8C10.1992 7.69778 10.1222 7.42 9.96812 7.16667C9.81406 6.91333 9.60788 6.71111 9.3496 6.56C9.09132 6.40889 8.80812 6.33333 8.49999 6.33333C8.19186 6.33333 7.90866 6.40889 7.65038 6.56C7.3921 6.71111 7.18592 6.91333 7.03186 7.16667C6.8778 7.42 6.80077 7.69778 6.80077 8C6.80077 8.30222 6.8778 8.58 7.03186 8.83333C7.18592 9.08667 7.3921 9.28889 7.65038 9.44C7.90866 9.59111 8.19186 9.66667 8.49999 9.66667Z" fill="#1D51A4"/>
</svg>
