<svg width="17" height="16" viewBox="0 0 17 16" fill="none" xmlns="http://www.w3.org/2000/svg">
<path d="M8.335 14.668C7.42834 14.668 6.56167 14.4946 5.735 14.148C4.94389 13.8102 4.23945 13.3324 3.62167 12.7146C3.00389 12.0969 2.52611 11.3924 2.18834 10.6013C1.84167 9.77464 1.66833 8.90797 1.66833 8.0013C1.66833 7.09464 1.84167 6.22797 2.18834 5.4013C2.52611 4.61019 3.00389 3.90575 3.62167 3.28797C4.23945 2.67019 4.94389 2.19241 5.735 1.85464C6.56167 1.50797 7.42834 1.33463 8.335 1.33463C9.24167 1.33463 10.1083 1.50797 10.935 1.85464C11.7261 2.19241 12.4306 2.67019 13.0483 3.28797C13.6661 3.90575 14.1439 4.61019 14.4817 5.4013C14.8283 6.22797 15.0017 7.09464 15.0017 8.0013C15.0017 8.90797 14.8283 9.77464 14.4817 10.6013C14.1439 11.3924 13.6661 12.0969 13.0483 12.7146C12.4306 13.3324 11.7261 13.8102 10.935 14.148C10.1083 14.4946 9.24167 14.668 8.335 14.668ZM8.335 13.3346C9.30389 13.3346 10.2017 13.0902 11.0283 12.6013C11.8283 12.1302 12.4639 11.4946 12.935 10.6946C13.4239 9.86797 13.6683 8.97019 13.6683 8.0013C13.6683 7.03241 13.4239 6.13463 12.935 5.30797C12.4639 4.50797 11.8283 3.87241 11.0283 3.4013C10.2017 2.91241 9.30389 2.66797 8.335 2.66797C7.36611 2.66797 6.46834 2.91241 5.64167 3.4013C4.84167 3.87241 4.20611 4.50797 3.735 5.30797C3.24611 6.13463 3.00167 7.03241 3.00167 8.0013C3.00167 8.97019 3.24611 9.86797 3.735 10.6946C4.20611 11.4946 4.84167 12.1302 5.64167 12.6013C6.46834 13.0902 7.36611 13.3346 8.335 13.3346ZM7.66833 4.66797H9.00167V6.0013H7.66833V4.66797ZM7.66833 7.33464H9.00167V11.3346H7.66833V7.33464Z" fill="#1D4ED8"/>
</svg>
