<svg width="140" height="43" viewBox="0 0 140 43" fill="none" xmlns="http://www.w3.org/2000/svg">
<path d="M9.95398 27.2703L3.26809 33.9561C1.42146 35.8028 1.42146 38.7954 3.26809 40.642C5.11472 42.4887 8.10735 42.4887 9.95398 40.642L23.3258 27.2703C25.1724 25.4236 25.1724 22.431 23.3258 20.5844L9.95398 7.21261C8.10735 5.36598 5.11472 5.36598 3.26809 7.21261C1.42146 9.05923 1.42146 12.0519 3.26809 13.9002L9.95398 20.5844C11.8006 22.431 11.8006 25.4236 9.95398 27.2703Z" fill="#2A2E55"/>
<path d="M3.06929 25.1974L0.525467 27.7396C-0.175156 28.4419 -0.175156 29.5793 0.525467 30.2817C1.2278 30.9823 2.36696 30.9823 3.06929 30.2817L8.15009 25.1974C8.85243 24.4968 8.85243 23.3577 8.15009 22.6571L3.06929 17.5728C2.36696 16.8722 1.2278 16.8722 0.525467 17.5728C-0.175156 18.2752 -0.175156 19.4126 0.525467 20.1149L3.06929 22.6571C3.76992 23.3577 3.76992 24.4968 3.06929 25.1974Z" fill="#2A2E55"/>
<path d="M1.79811 30.806C1.67477 30.806 1.54972 30.794 1.4281 30.7683C1.76043 30.6998 2.07391 30.5388 2.33257 30.2818L7.41508 25.1976C8.1157 24.497 8.1157 23.3579 7.41508 22.6572L2.33257 17.573C2.07391 17.3178 1.76043 17.155 1.4281 17.0865C1.54972 17.0625 1.67477 17.0488 1.79811 17.0488C2.2572 17.0488 2.718 17.2236 3.06917 17.573L8.14996 22.6572C8.50113 23.0067 8.67757 23.4675 8.67757 23.9266C8.67757 24.3874 8.50113 24.8465 8.14996 25.1976L3.06917 30.2818C2.718 30.6313 2.2572 30.806 1.79811 30.806Z" fill="#C7C7C7"/>
<path d="M21.0355 29.5605L14.3736 22.9003C12.5286 21.0536 12.5286 18.0593 14.3736 16.2127L16.6639 13.9224L23.3258 20.5843C24.2491 21.5076 24.7116 22.717 24.7116 23.9264C24.7116 25.1375 24.2491 26.3468 23.3258 27.2702L21.0355 29.5605Z" fill="#C7C7C7"/>
<path d="M29.203 14.7567L35.8889 8.06914C37.7355 6.22422 37.7355 3.22988 35.8889 1.38497C34.0423 -0.461656 31.0496 -0.461656 29.203 1.38497L15.8312 14.7567C13.9863 16.6016 13.9863 19.596 15.8312 21.4409L29.203 34.8127C31.0496 36.6593 34.0423 36.6593 35.8889 34.8127C37.7355 32.9678 37.7355 29.9734 35.8889 28.1285L29.203 21.4409C27.3581 19.596 27.3581 16.6016 29.203 14.7567Z" fill="#2A2E55"/>
<path d="M36.0893 16.8275L38.6297 14.2871C39.332 13.5848 39.332 12.4473 38.6297 11.745C37.929 11.0427 36.7916 11.0427 36.0893 11.745L31.0068 16.8275C30.3044 17.5299 30.3044 18.6673 31.0068 19.3696L36.0893 24.4521C36.7916 25.1545 37.929 25.1545 38.6297 24.4521C39.332 23.7515 39.332 22.6124 38.6297 21.9117L36.0893 19.3696C35.3869 18.6673 35.3869 17.5299 36.0893 16.8275Z" fill="#2A2E55"/>
<g clip-path="url(#clip0_113_18462)">
<path d="M52.5935 24.0152H60.039V27.7765H48.5334V9.11426H59.7449V12.8467H52.5935V16.5273H59.0528V20.1791H52.5935V24.0152Z" fill="#2A2E55"/>
<path d="M73.4408 13.3534H76.3533V27.7475H73.2851L72.9621 26.4688C72.3393 27.003 71.6313 27.4221 70.8398 27.7245C70.0468 28.024 69.1976 28.1737 68.2907 28.1737C66.8489 28.1737 65.5584 27.8411 64.4209 27.1773C63.2818 26.5091 62.3821 25.6034 61.7218 24.4586C61.0643 23.3109 60.7356 22.0092 60.7356 20.5533C60.7356 19.1133 61.0643 17.8202 61.7218 16.6711C62.3821 15.5235 63.2818 14.6206 64.4209 13.964C65.5584 13.3073 66.8489 12.979 68.2907 12.979C69.2163 12.979 70.08 13.1345 70.8802 13.4456C71.6789 13.7566 72.3912 14.1872 73.014 14.7358L73.4408 13.3534ZM68.6136 24.4989C69.3591 24.4989 70.0295 24.3304 70.6264 23.992C71.2219 23.6551 71.689 23.1885 72.0278 22.5923C72.3652 21.9976 72.5354 21.318 72.5354 20.5533C72.5354 19.8045 72.3652 19.1335 72.0278 18.5373C71.689 17.9426 71.2219 17.4718 70.6264 17.1262C70.0295 16.7777 69.3591 16.602 68.6136 16.602C67.848 16.602 67.1718 16.7777 66.5836 17.1262C65.9953 17.4718 65.5311 17.9426 65.1937 18.5373C64.8548 19.1335 64.6862 19.8045 64.6862 20.5533C64.6862 21.318 64.8548 21.9933 65.1937 22.5808C65.5311 23.1655 65.9953 23.632 66.5836 23.9805C67.1718 24.3261 67.848 24.4989 68.6136 24.4989Z" fill="#2A2E55"/>
<path d="M83.6963 28.1737C82.4851 28.1737 81.4254 27.9606 80.5185 27.5344C79.6102 27.1081 78.9037 26.5091 78.3962 25.7373C77.8886 24.9654 77.6349 24.064 77.6349 23.0301H81.424C81.4427 23.6723 81.6734 24.1519 82.116 24.4701C82.5615 24.7898 83.1325 24.9482 83.8289 24.9482C84.3782 24.9482 84.8569 24.8301 85.2649 24.591C85.6759 24.3491 85.882 23.9891 85.882 23.5082C85.882 23.0128 85.611 22.6643 85.0689 22.4599C84.5267 22.2525 83.8722 22.0884 83.108 21.9645C82.5385 21.8767 81.9459 21.7514 81.3317 21.5901C80.716 21.4288 80.1508 21.1984 79.6361 20.8989C79.12 20.5965 78.6975 20.1775 78.3673 19.6433C78.04 19.1105 77.8771 18.4164 77.8771 17.5639C77.8771 16.6582 78.1208 15.859 78.6096 15.1678C79.0969 14.4737 79.7716 13.9352 80.6339 13.555C81.4989 13.172 82.5197 12.979 83.6963 12.979C84.8526 12.979 85.8618 13.1792 86.7241 13.578C87.5891 13.9784 88.261 14.5385 88.7426 15.2599C89.2227 15.9785 89.4635 16.818 89.4635 17.777H85.7494C85.7494 17.2097 85.5562 16.7834 85.1727 16.4983C84.792 16.2147 84.2629 16.0721 83.5867 16.0721C82.9826 16.0721 82.5111 16.2017 82.1737 16.458C81.8349 16.7158 81.6662 17.0498 81.6662 17.4602C81.6662 17.9412 81.9329 18.2695 82.4678 18.4452C83.0013 18.6223 83.6415 18.7735 84.3883 18.9002C84.9766 19.0039 85.5821 19.1335 86.205 19.2861C86.8279 19.4359 87.406 19.6634 87.9409 19.9658C88.4744 20.2653 88.9055 20.6829 89.2328 21.2157C89.563 21.75 89.7288 22.4527 89.7288 23.3239C89.7288 24.303 89.4779 25.1584 88.979 25.887C88.4831 26.6128 87.7809 27.1758 86.874 27.5747C85.9657 27.9736 84.9074 28.1737 83.6963 28.1737Z" fill="#2A2E55"/>
<path d="M101.023 13.3765H105.187L98.8834 27.592C98.3139 28.8894 97.7357 29.932 97.1475 30.7196C96.5621 31.5102 95.896 32.0848 95.1462 32.4419C94.3994 32.799 93.4824 32.9775 92.3953 32.9775H90.7977V29.4582H92.1588C92.7817 29.4582 93.2748 29.3862 93.641 29.2451C94.0058 29.1025 94.3172 28.839 94.5753 28.456C94.8319 28.0758 95.1131 27.5214 95.4173 26.7914L95.4692 26.6819L89.3559 13.3765H93.6006L97.4416 22.2295L101.023 13.3765Z" fill="#2A2E55"/>
<path d="M114.073 18.019H124.033C124.013 19.4936 123.774 20.85 123.312 22.0855C122.851 23.3182 122.197 24.3895 121.352 25.2996C120.505 26.2068 119.5 26.9124 118.335 27.4192C117.17 27.9218 115.884 28.1738 114.477 28.1738C113.104 28.1738 111.83 27.9333 110.653 27.4538C109.48 26.9743 108.453 26.3004 107.574 25.4321C106.693 24.5609 106.012 23.5298 105.532 22.339C105.051 21.1495 104.811 19.8593 104.811 18.4683C104.811 17.0672 105.045 15.7755 105.515 14.5918C105.988 13.4096 106.657 12.3786 107.522 11.4988C108.387 10.6204 109.405 9.93637 110.578 9.44821C111.755 8.95718 113.027 8.71094 114.396 8.71094C115.945 8.71094 117.378 9.01477 118.693 9.62101C120.011 10.2244 121.115 11.0596 122.003 12.1266C122.894 13.1951 123.483 14.4291 123.768 15.8302H119.604C119.212 14.8165 118.552 14.0187 117.626 13.4341C116.699 12.8466 115.649 12.5528 114.477 12.5528C113.373 12.5528 112.402 12.8063 111.565 13.3131C110.73 13.82 110.077 14.5141 109.604 15.3925C109.131 16.2723 108.894 17.2976 108.894 18.4683C108.894 19.6246 109.125 20.6441 109.586 21.5268C110.051 22.4066 110.701 23.0964 111.536 23.5946C112.373 24.09 113.354 24.3377 114.477 24.3377C115.688 24.3377 116.774 24.0439 117.736 23.4564C118.696 22.8689 119.346 22.0956 119.685 21.1351H114.073V18.019Z" fill="#2A2E55"/>
<path d="M132.232 28.1737C130.735 28.1737 129.4 27.8411 128.223 27.1773C127.05 26.5091 126.126 25.6034 125.449 24.4586C124.772 23.3109 124.434 22.0164 124.434 20.5764C124.434 19.122 124.772 17.8202 125.449 16.6711C126.126 15.5235 127.05 14.6206 128.223 13.964C129.4 13.3073 130.735 12.979 132.232 12.979C133.708 12.979 135.032 13.3073 136.205 13.964C137.382 14.6206 138.307 15.5235 138.985 16.6711C139.661 17.8202 140 19.122 140 20.5764C140 22.0164 139.661 23.3109 138.985 24.4586C138.307 25.6034 137.382 26.5091 136.205 27.1773C135.032 27.8411 133.708 28.1737 132.232 28.1737ZM132.232 24.5219C133.35 24.5219 134.265 24.159 134.977 23.4333C135.692 22.7047 136.049 21.7514 136.049 20.5764C136.049 19.4057 135.692 18.4553 134.977 17.7252C134.265 16.9966 133.35 16.6308 132.232 16.6308C131.09 16.6308 130.163 16.9966 129.452 17.7252C128.74 18.4553 128.385 19.4057 128.385 20.5764C128.385 21.7514 128.74 22.7047 129.452 23.4333C130.163 24.159 131.09 24.5219 132.232 24.5219Z" fill="#2A2E55"/>
</g>
<defs>
<clipPath id="clip0_113_18462">
<rect width="91.4667" height="24.2666" fill="white" transform="translate(48.5334 8.71094)"/>
</clipPath>
</defs>
</svg>
