<svg width="36" height="36" viewBox="0 0 36 36" fill="none" xmlns="http://www.w3.org/2000/svg">
<circle cx="18" cy="18" r="18" fill="#3AB449"/>
<path d="M11.635 23.9258V13.9508C11.635 13.7908 11.68 13.6458 11.77 13.5158C11.86 13.3858 11.98 13.2958 12.13 13.2458L19.375 10.6058C19.475 10.5658 19.5725 10.5683 19.6675 10.6133C19.7625 10.6583 19.825 10.7308 19.855 10.8308C19.875 10.8708 19.885 10.9108 19.885 10.9508V14.6708L24.625 16.2458C24.775 16.2958 24.8975 16.3883 24.9925 16.5233C25.0875 16.6583 25.135 16.8058 25.135 16.9658V23.9258H26.635V25.4258H10.135V23.9258H11.635ZM13.135 23.9258H18.385V12.5558L13.135 14.4758V23.9258ZM23.635 23.9258V17.5058L19.885 16.2458V23.9258H23.635Z" fill="white"/>
</svg>
