<svg width="19" height="17" viewBox="0 0 19 17" fill="none" xmlns="http://www.w3.org/2000/svg">
<path d="M1.66667 14.8294V3.74609C1.66667 3.56832 1.71667 3.4072 1.81667 3.26276C1.91667 3.11832 2.05 3.01832 2.21667 2.96276L10.2667 0.0294266C10.3778 -0.0150185 10.4861 -0.0122414 10.5917 0.0377598C10.6972 0.087759 10.7667 0.168316 10.8 0.279427C10.8222 0.323872 10.8333 0.368315 10.8333 0.41276V4.54609L16.1 6.29609C16.2667 6.35165 16.4028 6.45443 16.5083 6.60443C16.6139 6.75443 16.6667 6.91832 16.6667 7.09609V14.8294H18.3333V16.4961H0V14.8294H1.66667ZM3.33333 14.8294H9.16667V2.19609L3.33333 4.32943V14.8294ZM15 14.8294V7.69609L10.8333 6.29609V14.8294H15Z" fill="#EAB308"/>
</svg>
