<svg width="36" height="36" viewBox="0 0 36 36" fill="none" xmlns="http://www.w3.org/2000/svg">
<circle cx="18" cy="18" r="18" fill="#A855F7"/>
<path d="M12.385 12.75V23.25H24.385V14.25H18.07L16.57 12.75H12.385ZM18.7 12.75H25.135C25.345 12.75 25.5225 12.8225 25.6675 12.9675C25.8125 13.1125 25.885 13.29 25.885 13.5V24C25.885 24.21 25.8125 24.3875 25.6675 24.5325C25.5225 24.6775 25.345 24.75 25.135 24.75H11.635C11.425 24.75 11.2475 24.6775 11.1025 24.5325C10.9575 24.3875 10.885 24.21 10.885 24V12C10.885 11.79 10.9575 11.6125 11.1025 11.4675C11.2475 11.3225 11.425 11.25 11.635 11.25H17.2L18.7 12.75Z" fill="white"/>
</svg>
