<svg width="21" height="20" viewBox="0 0 21 20" fill="none" xmlns="http://www.w3.org/2000/svg">
<path d="M2.91999 16.5833V5.5C2.91999 5.32222 2.96999 5.16111 3.06999 5.01667C3.16999 4.87222 3.30333 4.77222 3.46999 4.71667L11.52 1.78333C11.6311 1.73889 11.7394 1.74166 11.845 1.79167C11.9505 1.84167 12.02 1.92222 12.0533 2.03333C12.0755 2.07778 12.0867 2.12222 12.0867 2.16667V6.3L17.3533 8.05C17.52 8.10555 17.6561 8.20833 17.7617 8.35833C17.8672 8.50833 17.92 8.67222 17.92 8.85V16.5833H19.5867V18.25H1.25333V16.5833H2.91999ZM4.58666 16.5833H10.42V3.95L4.58666 6.08333V16.5833ZM16.2533 16.5833V9.45L12.0867 8.05V16.5833H16.2533Z" fill="white"/>
</svg>
