<svg width="17" height="21" viewBox="0 0 17 21" fill="none" xmlns="http://www.w3.org/2000/svg">
<path d="M8.5 0L16.2633 1.73727C16.4774 1.78818 16.6537 1.90273 16.7922 2.08091C16.9307 2.25909 17 2.45636 17 2.67273V12.1991C17 13.1664 16.7765 14.07 16.3294 14.91C15.8824 15.75 15.2622 16.4373 14.4689 16.9718L8.5 21L2.53111 16.9718C1.73778 16.4373 1.11759 15.75 0.670556 14.91C0.223519 14.07 0 13.1664 0 12.1991V2.67273C0 2.45636 0.0692593 2.25909 0.207778 2.08091C0.346296 1.90273 0.522593 1.78818 0.736667 1.73727L8.5 0ZM8.5 1.94727L1.88889 3.43636V12.1991C1.88889 12.8482 2.03685 13.4527 2.33278 14.0127C2.6287 14.5727 3.04111 15.0309 3.57 15.3873L8.5 18.7091L13.43 15.3873C13.9589 15.0309 14.3713 14.5727 14.6672 14.0127C14.9631 13.4527 15.1111 12.8482 15.1111 12.1991V3.43636L8.5 1.94727ZM12.7122 6.89182L14.0344 8.24727L8.02778 14.3182L4.02333 10.2709L5.36444 8.91545L8.02778 11.6264L12.7122 6.89182Z" fill="#FD8D5B"/>
</svg>
