<svg width="17" height="16" viewBox="0 0 17 16" fill="none" xmlns="http://www.w3.org/2000/svg">
<path d="M12.255 10.9734L15.1083 13.8268L14.1617 14.7734L11.3083 11.9201C10.7839 12.3379 10.2106 12.6579 9.58834 12.8801C8.93056 13.1112 8.25501 13.2268 7.56168 13.2268C6.47723 13.2268 5.46834 12.9557 4.53501 12.4134C3.62834 11.8801 2.91279 11.1601 2.38834 10.2534C1.83723 9.3201 1.56168 8.31121 1.56168 7.22677C1.56168 6.14233 1.83723 5.13344 2.38834 4.2001C2.91279 3.29344 3.62834 2.57788 4.53501 2.05344C5.46834 1.50233 6.47723 1.22677 7.56168 1.22677C8.64612 1.22677 9.65501 1.50233 10.5883 2.05344C11.495 2.57788 12.215 3.29344 12.7483 4.2001C13.2906 5.13344 13.5617 6.14233 13.5617 7.22677C13.5617 7.9201 13.4461 8.59566 13.215 9.25344C12.9928 9.87566 12.6728 10.449 12.255 10.9734ZM10.9083 10.4801C11.3261 10.0534 11.6506 9.56455 11.8817 9.01344C12.1128 8.44455 12.2283 7.84899 12.2283 7.22677C12.2283 6.38233 12.015 5.59566 11.5883 4.86677C11.1795 4.16455 10.6239 3.60899 9.92168 3.2001C9.19279 2.77344 8.40612 2.5601 7.56168 2.5601C6.71723 2.5601 5.93056 2.77344 5.20168 3.2001C4.49945 3.60899 3.9439 4.16455 3.53501 4.86677C3.10834 5.59566 2.89501 6.38233 2.89501 7.22677C2.89501 8.07122 3.10834 8.85788 3.53501 9.58677C3.9439 10.289 4.49945 10.8445 5.20168 11.2534C5.93056 11.6801 6.71723 11.8934 7.56168 11.8934C8.1839 11.8934 8.77945 11.7779 9.34834 11.5468C9.89945 11.3157 10.3883 10.9912 10.815 10.5734L10.9083 10.4801Z" fill="#9CA3AF"/>
</svg>
