<svg width="54" height="74" viewBox="0 0 54 74" fill="none" xmlns="http://www.w3.org/2000/svg">
<path d="M33 14.2308C36.2 13.32 50 8.53846 54 0V59.2H38C38 46.4872 33 19.6954 33 14.2308Z" fill="#E5ECFF"/>
<path d="M0 24.2336C0 18.7108 4.47359 14.2336 9.99644 14.2336C15.3476 14.2336 21.8727 14.2336 27 14.2336C37.5442 14.2336 54 2.22948 54 14.2336C54 32.4489 54 59.7721 54 59.7721H10C4.47715 59.7721 0 55.2949 0 49.7721V24.2336Z" fill="#E5ECFF"/>
<path d="M33 59.7692C36.2 60.68 50 65.4615 54 74V14.8H38C38 27.5128 33 54.3046 33 59.7692Z" fill="#E5ECFF"/>
<path d="M0 49.7664C0 55.2892 4.47359 59.7664 9.99644 59.7664C15.3476 59.7664 21.8727 59.7664 27 59.7664C37.5442 59.7664 54 71.7705 54 59.7664C54 41.5511 54 14.2279 54 14.2279H10C4.47715 14.2279 0 18.7051 0 24.2279V49.7664Z" fill="#E5ECFF"/>
</svg>
