<svg width="36" height="36" viewBox="0 0 36 36" fill="none" xmlns="http://www.w3.org/2000/svg">
<circle cx="18" cy="18" r="18" fill="#FD8D5B"/>
<path d="M23.635 12H13.135V24H23.635V12ZM11.635 11.25C11.635 11.04 11.7075 10.8625 11.8525 10.7175C11.9975 10.5725 12.175 10.5 12.385 10.5H24.385C24.595 10.5 24.7725 10.5725 24.9175 10.7175C25.0625 10.8625 25.135 11.04 25.135 11.25V24.75C25.135 24.95 25.0625 25.125 24.9175 25.275C24.7725 25.425 24.595 25.5 24.385 25.5H12.385C12.175 25.5 11.9975 25.4275 11.8525 25.2825C11.7075 25.1375 11.635 24.96 11.635 24.75V11.25ZM17.86 18.84L21.04 15.66L22.09 16.725L17.86 20.955L14.935 18.045L16 16.98L17.86 18.84Z" fill="white"/>
</svg>
