<svg width="21" height="20" viewBox="0 0 21 20" fill="none" xmlns="http://www.w3.org/2000/svg">
<path d="M6.50334 17.3487L2.08667 18.332L3.07 13.9154C2.41445 12.7043 2.08667 11.3987 2.08667 9.9987C2.08667 8.86536 2.30334 7.78203 2.73667 6.7487C3.15889 5.75981 3.75611 4.87925 4.52834 4.10703C5.30056 3.33481 6.18111 2.73759 7.17 2.31536C8.20334 1.88203 9.28667 1.66536 10.42 1.66536C11.5533 1.66536 12.6367 1.88203 13.67 2.31536C14.6589 2.73759 15.5394 3.33481 16.3117 4.10703C17.0839 4.87925 17.6811 5.75981 18.1033 6.7487C18.5367 7.78203 18.7533 8.86536 18.7533 9.9987C18.7533 11.132 18.5367 12.2154 18.1033 13.2487C17.6811 14.2376 17.0839 15.1181 16.3117 15.8904C15.5394 16.6626 14.6589 17.2598 13.67 17.682C12.6367 18.1154 11.5533 18.332 10.42 18.332C9.02 18.332 7.71445 18.0043 6.50334 17.3487ZM6.73667 15.5987L7.28667 15.882C8.26445 16.4043 9.30889 16.6654 10.42 16.6654C11.6311 16.6654 12.7533 16.3598 13.7867 15.7487C14.7867 15.1598 15.5811 14.3654 16.17 13.3654C16.7811 12.332 17.0867 11.2098 17.0867 9.9987C17.0867 8.78759 16.7811 7.66536 16.17 6.63203C15.5811 5.63203 14.7867 4.83759 13.7867 4.2487C12.7533 3.63759 11.6311 3.33203 10.42 3.33203C9.20889 3.33203 8.08667 3.63759 7.05334 4.2487C6.05334 4.83759 5.25889 5.63203 4.67 6.63203C4.05889 7.66536 3.75334 8.78759 3.75334 9.9987C3.75334 11.1098 4.01445 12.1543 4.53667 13.132L4.82 13.682L4.28667 16.132L6.73667 15.5987Z" fill="white"/>
</svg>
