<svg width="24" height="28" viewBox="0 0 24 28" fill="none" xmlns="http://www.w3.org/2000/svg">
<g clip-path="url(#clip0_116_21758)">
<path d="M3.42857 2C1.5375 2 0 3.5375 0 5.42857V22.5714C0 24.4625 1.5375 26 3.42857 26H20.5714C22.4625 26 24 24.4625 24 22.5714V5.42857C24 3.5375 22.4625 2 20.5714 2H3.42857ZM19.3446 6.5L13.7839 12.8536L20.325 21.5H15.2036L11.1964 16.2554L6.60536 21.5H4.06071L10.0071 14.7018L3.73393 6.5H8.98393L12.6107 11.2946L16.8 6.5H19.3446ZM17.3196 19.9786L8.21786 7.94107H6.70179L15.9054 19.9786H17.3143H17.3196Z" fill="#030303"/>
</g>
<defs>
<clipPath id="clip0_116_21758">
<rect width="24" height="28" fill="white"/>
</clipPath>
</defs>
</svg>
